<svg width="30" height="30" viewBox="0 0 30 30" fill="none" xmlns="http://www.w3.org/2000/svg">
<path d="M21.6536 19.0045C21.9681 18.6846 22.0482 18.2143 21.9886 17.7027C21.9284 17.1869 21.7222 16.583 21.4027 15.9336C20.7626 14.6323 19.642 13.0968 18.1969 11.6277L18.1969 11.6276C16.7512 10.1586 15.24 9.01936 13.9588 8.36838C13.3194 8.04353 12.724 7.83346 12.2146 7.77214C11.7083 7.71119 11.2421 7.79356 10.926 8.11463L10.926 8.11469C10.8315 8.21067 10.7651 8.32096 10.7143 8.42865L10.7146 8.42881L10.7064 8.43033L3.8524 24.1232L3.85514 24.138C3.7532 24.3621 3.81171 24.633 3.90801 24.8577C4.0141 25.1052 4.19562 25.3687 4.43115 25.6084L4.43128 25.6085C4.66681 25.8479 4.92629 26.0329 5.17082 26.1412C5.39251 26.2394 5.66347 26.3006 5.88818 26.1946L5.90149 26.1971L21.3413 19.2301L21.3432 19.2213C21.4496 19.1698 21.5585 19.1019 21.6536 19.0045ZM21.6536 19.0045C21.6535 19.0046 21.6533 19.0048 21.6532 19.0049L21.4751 18.8296L21.654 19.0041C21.6539 19.0043 21.6537 19.0044 21.6536 19.0045ZM4.07921 24.2255V24.2255Z" fill="#24272D" stroke="#24272D" stroke-width="0.5" stroke-linejoin="bevel"/>
<path d="M12.1403 10.9377L11.7298 10.9631L4.03981 23.6995L4.02474 23.7286L3.85242 24.123L3.85516 24.1378C3.75319 24.3619 3.8117 24.6328 3.90801 24.8575C4.0141 25.105 4.19562 25.3685 4.43115 25.6082L4.43128 25.6083C4.58979 25.7695 4.75301 25.8901 4.90773 25.9894L5.2373 25.936L14.5827 14.3548L14.5846 14.0432L12.1403 10.9377Z" fill="#24272D" stroke="#24272D" stroke-width="0.5" stroke-linejoin="bevel"/>
<path d="M18.0627 11.7542L18.2409 11.5789C16.8003 10.115 15.3055 8.96941 14.0467 8.30355C13.4188 7.97137 12.8363 7.75146 12.3406 7.67805C11.85 7.60541 11.3918 7.67031 11.085 7.98199L11.0849 7.98205C10.7795 8.29245 10.7163 8.75462 10.7873 9.25061C10.8593 9.75269 11.0751 10.3437 11.4017 10.9817C12.0564 12.2605 13.1831 13.7798 14.6231 15.2438L14.6232 15.2438C16.0638 16.7071 17.5586 17.8523 18.8173 18.5179C19.4452 18.85 20.0276 19.0698 20.5233 19.1431C21.0137 19.2156 21.4717 19.1506 21.7784 18.8389C22.0841 18.5286 22.1474 18.0666 22.0764 17.5707C22.0045 17.0688 21.7887 16.4781 21.462 15.8402C20.8073 14.5618 19.6807 13.0429 18.241 11.5789L18.0627 11.7542Z" fill="#24272D" stroke="#24272D" stroke-width="0.5" stroke-linejoin="bevel"/>
<path d="M14.5175 11.007C14.7552 11.0333 14.9806 10.9592 15.152 10.8183M14.5175 11.007C13.9462 10.9441 13.4447 10.7398 13.0841 10.3976C12.7018 10.0349 12.505 9.5388 12.5584 9.03352L15.152 10.8183M14.5175 11.007C14.5175 11.007 14.5175 11.007 14.5174 11.007L14.545 10.7586L14.5176 11.007C14.5176 11.007 14.5176 11.007 14.5175 11.007ZM15.152 10.8183C15.3224 10.679 15.4416 10.4726 15.4658 10.2343C15.5172 9.75916 15.1774 9.32804 14.7034 9.27529L14.7031 9.27525C14.6473 9.26911 14.5975 9.26087 14.5531 9.25131C14.5977 9.25164 14.6476 9.25438 14.7034 9.26046L15.152 10.8183ZM15.4188 2.53693C16.6636 2.67295 17.2356 3.49467 17.1568 4.23565C17.0773 4.97725 16.3471 5.6555 15.1011 5.51948L12.5584 9.03349C12.6543 8.12618 13.537 7.37976 14.8894 7.52807C14.9441 7.53403 14.9937 7.53677 15.0384 7.53711M15.4188 2.53693L15.4463 2.28845C14.968 2.2355 14.5478 2.58607 14.4975 3.06054C14.4458 3.53643 14.7849 3.9674 15.2599 4.02016L15.2601 4.02019C15.3161 4.02634 15.3661 4.0346 15.4105 4.04419C15.3658 4.04384 15.3157 4.04107 15.2597 4.03496C13.9081 3.886 13.0267 4.63278 12.9294 5.53939L12.9294 5.53941C12.8752 6.04519 13.0729 6.54136 13.4551 6.90393L13.4552 6.90409C13.8164 7.24604 14.3177 7.45039 14.8892 7.51329M15.4188 2.53693C15.0821 2.49966 14.7821 2.74624 14.746 3.08723L15.0746 5.78214C15.0194 5.77608 14.9701 5.76797 14.9261 5.75857C14.9698 5.75906 15.0188 5.7619 15.0735 5.76796L15.0739 5.768C16.4264 5.91565 17.3081 5.17045 17.4054 4.26228L17.4054 4.2621C17.5019 3.35519 16.797 2.43603 15.446 2.28841L15.4188 2.53693ZM14.8892 7.51329C14.8892 7.51329 14.8891 7.51329 14.8891 7.51328L14.9165 7.26479L14.8892 7.51329ZM14.8892 7.51329C14.9446 7.5194 14.9942 7.5276 15.0384 7.53711M15.0384 7.53711C15.1675 7.5381 15.2557 7.51904 15.309 7.49945C15.342 7.48734 15.3576 7.47653 15.3615 7.47356M15.0384 7.53711C15.1638 7.56411 15.2456 7.60171 15.2936 7.63242C15.3237 7.65164 15.3369 7.66585 15.3402 7.66977M15.3615 7.47356C15.3533 7.48188 15.3284 7.5121 15.322 7.56694C15.3219 7.56763 15.3218 7.56833 15.3218 7.56903C15.3217 7.56974 15.3216 7.57044 15.3216 7.57114C15.3165 7.62524 15.3339 7.65966 15.3402 7.66977M15.3615 7.47356C15.3619 7.47324 15.3622 7.47301 15.3624 7.47288C15.3653 7.47042 15.3644 7.47061 15.3615 7.47356ZM15.3402 7.66977C15.3426 7.67355 15.3434 7.67392 15.3409 7.67063C15.3408 7.67045 15.3405 7.67016 15.3402 7.66977ZM17.0338 7.75582L17.0338 7.75585C16.9373 8.66275 16.0556 9.40942 14.7036 9.26048L17.0338 7.75582ZM17.0338 7.75582C17.1303 6.84881 16.4253 5.93043 15.0746 5.78215L17.0338 7.75582ZM14.2516 9.11799C14.2491 9.11472 14.2499 9.11508 14.2523 9.11883C14.252 9.11845 14.2517 9.11817 14.2516 9.11799ZM15.7114 4.17737C15.7138 4.18061 15.7131 4.18027 15.7107 4.17656C15.711 4.17691 15.7112 4.17719 15.7114 4.17737ZM14.0219 9.19332C14.0139 9.26848 14.1905 9.47034 14.6758 9.52375L14.0219 9.19332ZM14.6226 5.62521C14.6202 5.62209 14.621 5.62243 14.6232 5.62602C14.6229 5.62565 14.6227 5.62538 14.6226 5.62521Z" fill="#24272D" stroke="#24272D" stroke-width="0.5" stroke-linejoin="bevel"/>
<path d="M21.5444 19.2183C21.3737 19.401 21.0761 19.3489 20.8791 19.1031L20.6496 18.1569C20.5059 18.3107 20.4571 18.5169 20.4685 18.7069C20.4802 18.8987 20.5535 19.0962 20.6839 19.2593L20.684 19.2595C20.8144 19.4221 20.9892 19.5348 21.1788 19.5677C21.3149 19.5913 21.4562 19.5724 21.58 19.5041M21.5444 19.2183L21.7017 19.3655C21.6886 19.3819 21.674 19.3988 21.6577 19.4161L21.6572 19.4166C21.6303 19.4455 21.6046 19.4746 21.58 19.5041M21.5444 19.2183L21.7018 19.3653L21.5444 19.2183ZM21.58 19.5041C20.9379 20.2731 21.065 21.2558 21.5413 21.8511L21.58 19.5041ZM22.8796 20.4812C23.4474 19.7261 23.3117 18.7904 22.8528 18.2163C22.6042 17.9052 22.2473 17.6822 21.8443 17.646C21.4337 17.6091 21.0114 17.7692 20.6496 18.1568L22.8796 20.4812ZM22.8796 20.4812C23.189 20.2373 23.529 20.1384 23.8612 20.1683C24.2641 20.2047 24.6209 20.4274 24.8694 20.7383M22.8796 20.4812L21.5414 21.8512C21.7904 22.1626 22.1472 22.3856 22.5503 22.4217C22.8836 22.4516 23.2246 22.3516 23.5348 22.1056C22.9637 22.8617 23.098 23.7986 23.5578 24.3738L23.5579 24.374C23.8071 24.6852 24.1642 24.9077 24.5672 24.9438C24.9777 24.9806 25.3999 24.8206 25.7615 24.4337L25.7616 24.4336C25.9053 24.2797 25.9541 24.0734 25.9425 23.8833C25.9307 23.6914 25.8572 23.4939 25.7272 23.3306L25.7269 23.3302C25.5964 23.167 25.4211 23.0546 25.2315 23.0219C25.0956 22.9985 24.9542 23.0174 24.8306 23.0856C25.4731 22.317 25.3465 21.334 24.8694 20.7383M24.8694 20.7383L24.6743 20.8943L24.8692 20.7381C24.8693 20.7382 24.8693 20.7382 24.8694 20.7383Z" fill="#24272D" stroke="#24272D" stroke-width="0.5" stroke-linejoin="bevel"/>
<path d="M17.3821 16.0828L17.3815 16.0821L17.3815 16.0821C17.0868 15.707 17.1466 15.1614 17.5153 14.8606L17.3821 16.0828ZM17.3821 16.0828C17.5516 16.2968 17.8017 16.4105 18.0559 16.4105C18.2454 16.4105 18.4357 16.3478 18.5951 16.2189L18.5951 16.2189L18.5961 16.218C18.5961 16.2181 18.5961 16.218 18.5963 16.2179C18.6033 16.2123 18.7784 16.0735 19.0964 15.8757C19.4216 15.6733 19.8946 15.4104 20.488 15.1655C21.6755 14.6754 23.3382 14.2603 25.2658 14.5383C25.7464 14.6104 26.1755 14.2694 26.2416 13.7991L26.2416 13.799M17.3821 16.0828L26.2416 13.799M26.2416 13.799C26.3079 13.3265 25.9851 12.8832 25.5112 12.8144M26.2416 13.799L25.5112 12.8144M25.5112 12.8144C20.9139 12.1462 17.6648 14.7387 17.5154 14.8606L25.5112 12.8144Z" fill="#24272D" stroke="#24272D" stroke-width="0.5" stroke-linejoin="bevel"/>
<path d="M7.51615 12.7793L7.51417 12.7787C7.05686 12.639 6.80282 12.1527 6.93804 11.6954C7.28063 10.5358 7.60727 9.0298 7.75247 7.69699C7.82511 7.03013 7.85144 6.41459 7.81419 5.91119C7.77603 5.3954 7.67389 5.0445 7.53045 4.86312L7.52935 4.86173L7.52935 4.86173C7.50019 4.82431 7.47479 4.80139 7.44189 4.78583C7.40866 4.77011 7.34688 4.75215 7.23144 4.76102C7.19207 4.76409 7.15005 4.78351 7.10157 4.86166C7.04988 4.94499 7.01018 5.06809 6.98357 5.21238C6.95763 5.35309 6.94731 5.49588 6.94377 5.60616C6.94065 5.70348 6.94294 5.77133 6.94341 5.78379C6.97664 6.25831 6.62497 6.67716 6.14926 6.7132L6.14579 6.71346L6.14579 6.71344C5.66716 6.74303 5.26101 6.38739 5.22595 5.90895L7.51615 12.7793ZM7.51615 12.7793C7.59701 12.8032 7.6802 12.8157 7.7632 12.8157C8.13556 12.8157 8.47722 12.5706 8.58839 12.1943L8.5884 12.1942C8.74434 11.6661 9.19355 10.0616 9.42133 8.35432C9.53517 7.50104 9.595 6.61301 9.53205 5.81635C9.46959 5.02593 9.28383 4.29072 8.87596 3.77476L8.87592 3.77471M7.51615 12.7793L8.87592 3.77471M8.87592 3.77471C8.44304 3.22741 7.82448 2.96834 7.10117 3.02403L8.87592 3.77471ZM5.50377 4.20045C5.76842 3.60836 6.26243 3.08853 7.10114 3.02403L5.50377 4.20045ZM5.50377 4.20045C5.24383 4.78202 5.19242 5.4526 5.22594 5.90889L5.50377 4.20045Z" fill="#24272D" stroke="#24272D" stroke-width="0.5" stroke-linejoin="bevel"/>
<path d="M18.8502 11.98C19.4984 11.98 20.0169 11.4471 20.0169 10.7984C20.0169 10.1496 19.4984 9.6167 18.8502 9.6167C18.2021 9.6167 17.6836 10.1496 17.6836 10.7984C17.6836 11.4471 18.2021 11.98 18.8502 11.98Z" fill="#24272D" stroke="#24272D" stroke-width="0.5" stroke-linejoin="bevel"/>
<path d="M4.48878 16.2676C5.30566 16.2676 5.96097 15.5957 5.96097 14.7754C5.96097 13.9551 5.30566 13.2832 4.48878 13.2832C3.6719 13.2832 3.0166 13.9551 3.0166 14.7754C3.0166 15.5957 3.6719 16.2676 4.48878 16.2676Z" fill="#24272D" stroke="#24272D" stroke-width="0.5" stroke-linejoin="bevel"/>
<path d="M18.8502 24.4463C19.4984 24.4463 20.0169 23.9134 20.0169 23.2647C20.0169 22.6159 19.4984 22.083 18.8502 22.083C18.2021 22.083 17.6836 22.6159 17.6836 23.2647C17.6836 23.9134 18.2021 24.4463 18.8502 24.4463Z" fill="#24272D" stroke="#24272D" stroke-width="0.5" stroke-linejoin="bevel"/>
<path d="M20.6226 6.00103C21.4395 6.00103 22.0948 5.32909 22.0948 4.50881C22.0948 3.68853 21.4395 3.0166 20.6226 3.0166C19.8057 3.0166 19.1504 3.68853 19.1504 4.50881C19.1504 5.32909 19.8057 6.00103 20.6226 6.00103Z" fill="#24272D" stroke="#24272D" stroke-width="0.5" stroke-linejoin="bevel"/>
<path d="M26.1832 5.37992C26.8314 5.37992 27.3499 4.84703 27.3499 4.19826C27.3499 3.5495 26.8314 3.0166 26.1832 3.0166C25.5351 3.0166 25.0166 3.5495 25.0166 4.19826C25.0166 4.84703 25.5351 5.37992 26.1832 5.37992Z" fill="#24272D" stroke="#24272D" stroke-width="0.5" stroke-linejoin="bevel"/>
<path d="M23.2496 10.5132C23.8978 10.5132 24.4163 9.98033 24.4163 9.33156C24.4163 8.6828 23.8978 8.1499 23.2496 8.1499C22.6015 8.1499 22.083 8.6828 22.083 9.33156C22.083 9.98033 22.6015 10.5132 23.2496 10.5132Z" fill="#24272D" stroke="#24272D" stroke-width="0.5" stroke-linejoin="bevel"/>
<path d="M4.91664 20.7798C5.56477 20.7798 6.08327 20.2469 6.08327 19.5982C6.08327 18.9494 5.56477 18.4165 4.91664 18.4165C4.26851 18.4165 3.75 18.9494 3.75 19.5982C3.75 20.2469 4.26851 20.7798 4.91664 20.7798Z" fill="#24272D" stroke="#24272D" stroke-width="0.5" stroke-linejoin="bevel"/>
<path d="M11.1042 8.29002C11.0357 8.35959 10.9838 8.44343 10.9404 8.53536L10.9355 8.53039L4.0815 24.2233L4.08822 24.2301C3.96112 24.4804 4.17378 24.9897 4.60949 25.4332C5.04519 25.876 5.54629 26.0922 5.79256 25.963L5.79867 25.9692L21.2385 19.0022L21.2336 18.9966C21.3235 18.9532 21.4059 18.9004 21.475 18.8296C22.4295 17.8594 20.8816 14.7135 18.0187 11.803C15.1545 8.89249 12.0593 7.31985 11.1042 8.29002Z" fill="#DC7381"/>
<path d="M11.9438 11.0923L4.25383 23.8287L4.0815 24.2231L4.08822 24.2299C3.96112 24.4802 4.17378 24.9895 4.60949 25.433C4.75126 25.5771 4.89853 25.6864 5.04275 25.779L14.3882 14.1978L11.9438 11.0923Z" fill="#FB8798"/>
<path d="M18.0627 11.7542C20.9165 14.656 22.5011 17.7491 21.6003 18.6634C20.7002 19.5789 17.657 17.969 14.8013 15.0684C11.9469 12.1666 10.363 9.07228 11.2631 8.15739C12.1639 7.2425 15.2071 8.8524 18.0627 11.7542V11.7542Z" fill="#A34450"/>
<path d="M14.9935 10.625C14.8719 10.725 14.713 10.7771 14.545 10.7585C14.0146 10.7001 13.5685 10.5126 13.2562 10.2163C12.9256 9.90263 12.7624 9.48152 12.807 9.05979C12.8853 8.31943 13.6161 7.63994 14.8621 7.77658C15.3467 7.82937 15.5631 7.67099 15.5704 7.59522C15.579 7.52006 15.4011 7.3182 14.9165 7.26479C14.3861 7.2064 13.94 7.01883 13.6271 6.72256C13.2965 6.4089 13.1328 5.98779 13.178 5.56606C13.2574 4.8257 13.9877 4.14621 15.2325 4.28348C15.5857 4.32199 15.7721 4.24808 15.8509 4.20025C15.9138 4.16112 15.9389 4.12385 15.9413 4.10212C15.9487 4.02696 15.7733 3.8251 15.2875 3.77169C14.952 3.73442 14.7088 3.42884 14.746 3.08723C14.7821 2.74624 15.0821 2.49966 15.4188 2.53693C16.6636 2.67295 17.2356 3.49467 17.1568 4.23565C17.0773 4.97725 16.3471 5.6555 15.1011 5.51948C14.7479 5.48035 14.5633 5.55488 14.4839 5.60271C14.4209 5.64122 14.3953 5.6791 14.3928 5.70022C14.3849 5.776 14.5615 5.97724 15.0473 6.03065C16.2921 6.16729 16.8641 6.9884 16.7852 7.72938C16.7064 8.46973 15.9762 9.14923 14.7308 9.01196C14.3775 8.97345 14.1918 9.04798 14.1123 9.09519C14.0488 9.13494 14.0243 9.17221 14.0219 9.19332C14.0139 9.26848 14.1905 9.47034 14.6758 9.52375C15.0106 9.56102 15.2545 9.86722 15.2172 10.2082C15.2001 10.3784 15.1151 10.5256 14.9935 10.625V10.625Z" fill="#B79CE2"/>
<path d="M20.8323 18.3275C21.4652 17.6494 22.23 17.8373 22.6575 18.3724C23.0848 18.9069 23.1875 19.8031 22.5545 20.48C22.3072 20.7439 22.3117 20.9803 22.3543 21.0349C22.3983 21.0894 22.6028 21.1129 22.8491 20.8488C23.482 20.1719 24.2468 20.3598 24.6741 20.8944C25.1024 21.4291 25.2038 22.3246 24.5707 23.0022C24.3238 23.2659 24.3282 23.5031 24.3719 23.557C24.4153 23.6112 24.6194 23.6349 24.8663 23.3712C25.0365 23.1893 25.335 23.2403 25.5316 23.4863C25.728 23.733 25.7496 24.0802 25.5789 24.263C24.9463 24.9396 24.1817 24.753 23.7531 24.2178C23.3258 23.6832 23.224 22.7878 23.8575 22.1101C24.1046 21.8456 24.1003 21.6097 24.0563 21.5552C24.0133 21.5009 23.809 21.4767 23.5624 21.7402C22.9289 22.418 22.1651 22.2309 21.7366 21.695C21.3089 21.1606 21.2071 20.2653 21.84 19.5872C22.0868 19.3242 22.0817 19.0867 22.039 19.0329C21.995 18.9784 21.7913 18.9545 21.5444 19.2183C21.3737 19.401 21.0761 19.3489 20.8791 19.1031C20.6828 18.8577 20.6616 18.5102 20.8323 18.3275V18.3275Z" fill="#E9C775"/>
<path d="M18.0559 16.1605C17.8763 16.1605 17.6991 16.0804 17.5781 15.9276C17.3672 15.6593 17.4106 15.2686 17.6734 15.0543C17.8066 14.9456 20.9843 12.409 25.4752 13.0618C25.8095 13.1103 26.0417 13.4245 25.994 13.7643C25.9464 14.1034 25.6396 14.3419 25.3023 14.291C21.3344 13.7183 18.466 16.0015 18.4379 16.0245C18.3242 16.1164 18.1898 16.1605 18.0559 16.1605V16.1605Z" fill="#B79CE2"/>
<path d="M7.7632 12.5657C7.70515 12.5657 7.64587 12.557 7.58721 12.5396C7.26394 12.4408 7.08061 12.0949 7.17778 11.7663C7.87015 9.42286 8.49774 5.68318 7.72654 4.70805C7.64037 4.59749 7.51021 4.4888 7.212 4.51178C6.6388 4.5565 6.69318 5.78567 6.69379 5.79809C6.71946 6.14032 6.46647 6.43845 6.13037 6.46391C5.78877 6.48503 5.50033 6.23286 5.47528 5.89063C5.41234 5.03413 5.67449 3.38447 7.12034 3.27329C7.76565 3.2236 8.30158 3.45155 8.67984 3.9298C10.1287 5.76268 8.65784 11.0762 8.34863 12.1234C8.26919 12.3924 8.02597 12.5657 7.7632 12.5657Z" fill="#BCE3A5"/>
<path d="M18.8502 11.73C19.3565 11.73 19.7669 11.3129 19.7669 10.7984C19.7669 10.2838 19.3565 9.8667 18.8502 9.8667C18.344 9.8667 17.9336 10.2838 17.9336 10.7984C17.9336 11.3129 18.344 11.73 18.8502 11.73Z" fill="#C7E6B4"/>
<path d="M4.48878 16.0176C5.16378 16.0176 5.71097 15.4615 5.71097 14.7754C5.71097 14.0894 5.16378 13.5332 4.48878 13.5332C3.81379 13.5332 3.2666 14.0894 3.2666 14.7754C3.2666 15.4615 3.81379 16.0176 4.48878 16.0176Z" fill="#D2B6F8"/>
<path d="M18.8502 24.1963C19.3565 24.1963 19.7669 23.7792 19.7669 23.2647C19.7669 22.7501 19.3565 22.333 18.8502 22.333C18.344 22.333 17.9336 22.7501 17.9336 23.2647C17.9336 23.7792 18.344 24.1963 18.8502 24.1963Z" fill="#C7E6B4"/>
<path d="M20.6226 5.75103C21.2976 5.75103 21.8448 5.19487 21.8448 4.50881C21.8448 3.82276 21.2976 3.2666 20.6226 3.2666C19.9476 3.2666 19.4004 3.82276 19.4004 4.50881C19.4004 5.19487 19.9476 5.75103 20.6226 5.75103Z" fill="#E9C775"/>
<path d="M26.1832 5.12992C26.6895 5.12992 27.0999 4.7128 27.0999 4.19826C27.0999 3.68372 26.6895 3.2666 26.1832 3.2666C25.677 3.2666 25.2666 3.68372 25.2666 4.19826C25.2666 4.7128 25.677 5.12992 26.1832 5.12992Z" fill="#E9C775"/>
<path d="M23.2496 10.2632C23.7559 10.2632 24.1663 9.8461 24.1663 9.33156C24.1663 8.81702 23.7559 8.3999 23.2496 8.3999C22.7434 8.3999 22.333 8.81702 22.333 9.33156C22.333 9.8461 22.7434 10.2632 23.2496 10.2632Z" fill="#E9C775"/>
<path d="M4.91664 20.5298C5.42288 20.5298 5.83327 20.1127 5.83327 19.5982C5.83327 19.0836 5.42288 18.6665 4.91664 18.6665C4.41039 18.6665 4 19.0836 4 19.5982C4 20.1127 4.41039 20.5298 4.91664 20.5298Z" fill="#E9C775"/>
</svg>